<?xml version="1.0" standalone="no"?>
<!DOCTYPE svg PUBLIC "-//W3C//DTD SVG 20010904//EN"
 "http://www.w3.org/TR/2001/REC-SVG-20010904/DTD/svg10.dtd">
<svg version="1.0" xmlns="http://www.w3.org/2000/svg"
 width="587.000000pt" height="425.000000pt" viewBox="0 0 587.000000 425.000000"
 preserveAspectRatio="xMidYMid meet">

<g transform="translate(0.000000,425.000000) scale(0.100000,-0.100000)"
fill="#000000" stroke="none">
<path d="M2745 4070 c-163 -21 -382 -108 -530 -211 -41 -29 -75 -56 -75 -60 0
-4 8 -10 18 -13 129 -37 167 -46 227 -52 39 -3 76 -11 83 -17 9 -7 26 2 62 32
74 63 112 73 405 107 168 20 273 15 475 -22 194 -35 224 -38 245 -26 16 8 12
14 -31 46 -57 42 -195 115 -274 146 -119 45 -249 70 -395 75 -77 2 -171 0
-210 -5z"/>
<path d="M3045 3734 c-72 -8 -362 -45 -381 -48 -100 -21 -214 -127 -339 -316
-17 -25 -32 -47 -35 -50 -31 -28 -64 -117 -54 -144 13 -34 118 8 309 124 191
117 268 154 325 158 35 3 67 -1 81 -9 30 -16 195 -122 264 -169 110 -76 337
-228 425 -285 59 -38 187 -124 284 -189 168 -113 178 -118 202 -106 13 8 27
25 31 38 16 67 -29 413 -59 449 -6 7 -8 13 -5 13 16 0 -63 178 -120 275 -36
59 -129 184 -146 196 -5 4 -26 2 -46 -3 -43 -12 -152 -5 -241 16 -156 36 -395
60 -495 50z"/>
<path d="M1987 3648 c-8 -13 -24 -33 -36 -45 -39 -41 -133 -195 -165 -272 -67
-155 -101 -306 -113 -488 -6 -99 -5 -104 21 -143 14 -22 29 -40 32 -40 2 0 24
10 47 21 23 12 69 24 102 27 52 4 69 0 112 -22 28 -14 54 -35 58 -46 7 -23 21
-26 39 -7 91 87 180 105 278 56 53 -27 89 -86 97 -156 l6 -56 58 -14 c78 -17
110 -42 143 -108 22 -46 26 -65 22 -116 l-4 -60 35 -19 c80 -43 115 -97 112
-172 -3 -65 -7 -85 -31 -130 -23 -45 -28 -42 89 -58 161 -22 307 -12 356 24
18 13 7 20 -135 91 -85 43 -158 83 -162 89 -15 22 -8 83 10 99 27 25 66 21
125 -12 52 -29 180 -97 287 -152 66 -35 121 -38 150 -9 45 45 47 111 6 148
-19 17 -125 76 -301 167 -121 62 -144 83 -145 132 0 35 21 53 64 53 13 0 127
-59 253 -132 204 -118 234 -132 284 -136 151 -12 191 115 58 183 -19 10 -74
43 -124 74 -49 31 -101 62 -115 69 -35 17 -64 35 -72 47 -5 7 -8 7 -8 0 0 -6
-3 -6 -8 1 -4 6 -41 32 -82 58 -86 55 -100 70 -100 107 0 55 60 68 131 27 54
-30 137 -81 204 -123 147 -94 215 -135 223 -135 5 0 29 -16 53 -35 50 -39 131
-61 170 -47 37 15 60 46 66 91 7 50 -23 99 -77 130 -19 11 -75 47 -125 80 -49
34 -93 61 -97 61 -4 0 -19 11 -33 24 -14 13 -40 31 -58 40 -18 9 -43 25 -57
35 -14 11 -113 76 -220 147 -107 70 -206 137 -219 148 -15 13 -21 15 -17 6 6
-12 5 -12 -6 1 -7 8 -59 46 -116 83 -81 54 -112 69 -143 70 -38 1 -130 -42
-479 -224 -78 -41 -104 -50 -146 -50 -68 0 -132 34 -162 86 -44 74 -12 188 79
289 30 32 120 149 130 166 7 13 -3 18 -64 29 -40 7 -112 25 -160 41 -49 16
-92 29 -97 29 -4 0 -14 -10 -23 -22z"/>
<path d="M1839 2598 c-12 -13 -43 -52 -69 -87 l-47 -63 17 -57 c21 -66 59
-155 64 -150 2 2 43 60 91 129 75 105 89 130 89 163 0 31 -6 45 -28 63 -36 32
-89 32 -117 2z"/>
<path d="M1687 2560 c6 -24 19 -26 27 -4 9 23 8 24 -13 24 -14 0 -18 -5 -14
-20z"/>
<path d="M2192 2564 c-12 -8 -22 -20 -22 -25 0 -5 -5 -15 -10 -22 -28 -34
-179 -267 -172 -267 4 0 2 -4 -4 -8 -6 -4 -30 -36 -53 -71 -49 -77 -54 -124
-16 -165 28 -30 78 -35 113 -10 21 15 84 106 207 304 33 52 62 97 65 100 48
45 52 142 6 172 -20 13 -91 8 -114 -8z"/>
<path d="M2430 2334 c-14 -9 -78 -89 -142 -179 -106 -147 -118 -168 -118 -206
0 -104 126 -123 177 -26 9 18 22 37 28 42 20 16 176 236 185 261 17 43 -12
103 -52 108 -3 1 -10 4 -14 9 -12 11 -37 8 -64 -9z"/>
<path d="M2605 2052 c-6 -4 -37 -43 -69 -87 -33 -44 -63 -85 -68 -91 -16 -22
-16 -75 1 -95 17 -21 66 -37 93 -31 9 2 31 26 49 54 18 27 37 55 43 61 33 36
67 90 72 116 5 24 1 35 -21 55 -27 26 -78 35 -100 18z"/>
<path d="M1381 1556 c-8 -9 -10 -192 -9 -667 l3 -654 129 -3 c86 -2 133 1 142
9 12 10 14 117 14 651 0 422 -4 646 -10 659 -10 17 -22 19 -134 19 -92 0 -126
-3 -135 -14z"/>
<path d="M4842 1550 c-18 -29 -18 -1279 1 -1303 11 -15 29 -17 147 -15 l135 3
5 315 c5 336 5 336 59 393 36 40 73 57 121 57 56 0 115 -32 147 -82 l28 -41 5
-321 5 -321 132 -3 132 -3 17 26 c15 24 16 56 11 343 -6 329 -10 364 -55 465
-31 70 -124 159 -197 187 -125 50 -275 26 -352 -56 -18 -19 -38 -32 -44 -29
-7 5 -9 70 -8 195 1 103 -1 192 -5 199 -5 7 -51 11 -139 11 -121 0 -133 -2
-145 -20z"/>
<path d="M4324 1515 c-50 -18 -100 -37 -111 -43 -25 -14 -33 -51 -33 -158 l0
-84 -38 0 c-21 0 -48 -7 -60 -16 -20 -14 -22 -23 -22 -123 0 -124 4 -130 75
-139 l45 -5 1 -316 c0 -174 3 -334 7 -356 l7 -40 135 -3 c118 -2 136 0 147 15
10 13 13 100 13 360 l0 343 68 0 c122 0 132 12 132 149 0 118 -5 125 -112 131
l-83 5 -3 144 c-1 86 -7 150 -14 158 -16 20 -54 15 -154 -22z"/>
<path d="M2094 1259 c-142 -48 -220 -150 -218 -285 3 -166 100 -269 314 -334
81 -24 131 -46 142 -64 4 -6 8 -25 8 -43 0 -50 -37 -73 -121 -73 -77 0 -121
16 -186 67 -23 18 -48 33 -56 33 -7 0 -44 -31 -81 -69 l-67 -70 14 -33 c17
-43 116 -123 183 -148 29 -10 90 -25 136 -31 199 -29 404 65 459 209 17 47 20
72 16 142 -5 102 -22 145 -76 199 -58 58 -206 127 -313 146 -50 9 -89 45 -81
76 9 38 22 48 69 55 64 9 108 -2 154 -41 23 -19 45 -35 48 -35 4 0 27 18 52
41 25 22 60 52 78 66 17 14 32 31 32 38 0 19 -107 112 -155 135 -91 44 -250
53 -351 19z"/>
<path d="M3212 1259 c-176 -45 -313 -168 -374 -336 -26 -73 -35 -215 -18 -292
53 -242 266 -420 506 -422 75 -1 118 17 199 81 34 27 68 50 73 50 6 0 14 -10
17 -22 4 -13 14 -38 22 -56 l15 -32 119 0 c107 0 119 2 129 19 6 13 10 186 10
494 0 567 11 522 -124 522 -99 0 -103 -3 -132 -97 -9 -32 -21 -58 -25 -58 -4
0 -31 25 -60 55 -95 101 -211 131 -357 94z m247 -274 c53 -26 90 -65 124 -129
29 -56 30 -163 1 -227 -99 -216 -413 -205 -480 17 -42 139 17 293 131 345 61
28 163 25 224 -6z"/>
<path d="M418 1251 c-113 -37 -209 -110 -280 -214 -51 -76 -77 -152 -84 -251
-20 -279 166 -523 434 -569 128 -23 207 2 308 95 44 41 54 39 69 -12 19 -67
25 -70 150 -70 103 0 115 2 125 19 6 13 10 188 10 498 0 389 -3 483 -14 498
-15 21 -109 32 -170 21 -30 -6 -37 -13 -52 -54 -9 -26 -23 -62 -31 -81 l-13
-34 -36 46 c-38 49 -88 88 -146 112 -52 21 -196 19 -270 -4z m275 -261 c53
-25 98 -70 128 -130 19 -36 24 -60 23 -120 -1 -109 -45 -185 -134 -234 -132
-72 -281 -26 -353 108 -17 33 -22 58 -22 126 0 73 4 92 27 135 30 57 57 84
113 114 54 29 158 29 218 1z"/>
</g>
</svg>
